# xmcd
#
# Track frame offsets:
# 150
# 18195
# 36751
# 58513
# 78194
# 95373
# 113520
# 133397
# 148617
# 162998
#
# Disc length: 2380 seconds
#
# Revision: 14
# Processed by: cddbd v1.4PL0 Copyright (c) Steve Scherf et al.
# Submitted via: plextools 1.15A
#
DISCID=79094a0a
DTITLE=Vasco Rossi - Stupido hotel
DYEAR=2001
DGENRE=Rock
TTITLE0=Vasco Rossi - Siamo soli
TTITLE1=Vasco Rossi - Ti prendo e ti porto via
TTITLE2=Vasco Rossi - Standing ovation
TTITLE3=Vasco Rossi - Stupido hotel
TTITLE4=Vasco Rossi - Io ti accontento
TTITLE5=Vasco Rossi - Perchè non piangi per me
TTITLE6=Vasco Rossi - Tu vuoi da me qualcosa
TTITLE7=Vasco Rossi - Stendimi
TTITLE8=Vasco Rossi - Quel vestito semplice
TTITLE9=Vasco Rossi - Canzone generale
EXTD=YEAR: 2001 ID3G: 17
EXTT0=inser by selidori.\nvisits www.bloopers.it
EXTT1=
EXTT2=
EXTT3=
EXTT4=
EXTT5=
EXTT6=
EXTT7=
EXTT8=
EXTT9=
PLAYORDER=
